<svg width="100" height="100" shape-rendering="crispEdges" xmlns="http://www.w3.org/2000/svg" version="1.2" viewBox="0 0 24 24"><style>rect{width:1px;height:1px}</style>
        <rect x="0" y="0" style="width:100%;height:100%" fill="#3c2a3c" />
        
        
        <rect x="16" y="9" fill="#200215ff"/>
        <rect x="16" y="9" fill="#200215ff"/><rect x="15" y="9" fill="#200215ff"/>
        <rect x="14" y="9" fill="#200215ff"/><rect x="13" y="9" fill="#200215ff"/>
        <rect x="12" y="9" fill="#200215ff"/>
        <rect x="10" y="9" fill="#200215ff"/><rect x="9" y="9" fill="#200215ff"/>
        <rect x="8" y="9" fill="#200215ff"/><rect x="7" y="9" fill="#200215ff"/>
        <rect x="6" y="9" fill="#200215ff"/><rect x="17" y="10" fill="#200215ff"/>
        <rect x="16" y="10" fill="#200215ff"/><rect x="15" y="10" fill="#690c45ff"/>
        <rect x="14" y="10" fill="#690c45ff"/><rect x="13" y="10" fill="#690c45ff"/>
        <rect x="12" y="10" fill="#200215ff"/><rect x="11" y="10" fill="#200215ff"/>
        <rect x="10" y="10" fill="#200215ff"/><rect x="9" y="10" fill="#690c45ff"/>
        <rect x="8" y="10" fill="#690c45ff"/><rect x="7" y="10" fill="#690c45ff"/>
        <rect x="6" y="10" fill="#200215ff"/><rect x="17" y="11" fill="#200215ff"/>
        <rect x="16" y="11" fill="#200215ff"/><rect x="15" y="11" fill="#8c0d5bff"/>
        <rect x="14" y="11" fill="#8c0d5bff"/><rect x="13" y="11" fill="#8c0d5bff"/>
        <rect x="12" y="11" fill="#200215ff"/>
        <rect x="10" y="11" fill="#200215ff"/><rect x="9" y="11" fill="#8c0d5bff"/>
        <rect x="8" y="11" fill="#8c0d5bff"/><rect x="7" y="11" fill="#8c0d5bff"/>
        <rect x="6" y="11" fill="#200215ff"/>
       <rect x="16" y="12" fill="#200215ff"/>
        <rect x="15" y="12" fill="#ad2160ff"/><rect x="14" y="12" fill="#ad2160ff"/>
        <rect x="13" y="12" fill="#ad2160ff"/><rect x="12" y="12" fill="#200215ff"/>
        <rect x="10" y="12" fill="#200215ff"/>
        <rect x="9" y="12" fill="#ad2160ff"/><rect x="8" y="12" fill="#ad2160ff"/>
        <rect x="7" y="12" fill="#ad2160ff"/><rect x="6" y="12" fill="#200215ff"/>
       
        <rect x="15" y="13" fill="#200215ff"/>
        <rect x="14" y="13" fill="#200215ff"/><rect x="13" y="13" fill="#200215ff"/>
        
        <rect x="9" y="13" fill="#200215ff"/>
        <rect x="8" y="13" fill="#200215ff"/><rect x="7" y="13" fill="#200215ff"/>
        </svg>
       
